<svg xmlns="http://www.w3.org/2000/svg" viewBox="0 0 1200 800" width="1200" height="800">
  <defs>
    <linearGradient id="grad" x1="0%" y1="0%" x2="100%" y2="100%">
      <stop offset="0%" stop-color="#c084fc"/>
      <stop offset="50%" stop-color="#818cf8"/>
      <stop offset="100%" stop-color="#67e8f9"/>
    </linearGradient>
    <filter id="glow">
      <feGaussianBlur stdDeviation="6" result="blur"/>
      <feMerge><feMergeNode in="blur"/><feMergeNode in="SourceGraphic"/></feMerge>
    </filter>
    <filter id="noise">
      <feTurbulence type="fractalNoise" baseFrequency="0.65" numOctaves="3" stitchTiles="stitch"/>
      <feColorMatrix type="saturate" values="0"/>
    </filter>
  </defs>
  <rect width="1200" height="800" fill="#000000"/>
  <rect width="1200" height="800" filter="url(#noise)" opacity="0.035"/>
  <ellipse cx="600" cy="360" rx="350" ry="250" fill="rgba(124,58,237,0.08)"/>
  <ellipse cx="400" cy="500" rx="200" ry="180" fill="rgba(34,211,238,0.04)"/>
  <g opacity="0.5">
    <circle cx="48" cy="32" r="3" fill="#a78bfa" filter="url(#glow)"/>
    <text x="60" y="36" font-family="monospace" font-size="10" fill="rgba(255,255,255,0.5)" letter-spacing="2">VOID.SYS</text>
    <text x="460" y="36" font-family="monospace" font-size="10" fill="rgba(255,255,255,0.3)" letter-spacing="3">01. ABOUT</text>
    <text x="560" y="36" font-family="monospace" font-size="10" fill="rgba(255,255,255,0.3)" letter-spacing="3">02. WORK</text>
    <text x="655" y="36" font-family="monospace" font-size="10" fill="rgba(255,255,255,0.3)" letter-spacing="3">03. CONTACT</text>
    <rect x="1095" y="20" width="60" height="24" rx="12" fill="none" stroke="rgba(255,255,255,0.08)" stroke-width="1"/>
    <text x="1106" y="36" font-family="monospace" font-size="9" fill="rgba(255,255,255,0.5)" letter-spacing="2">PING</text>
  </g>
  <text x="600" y="420" text-anchor="middle" font-family="sans-serif" font-weight="700" font-size="160" letter-spacing="-6" fill="url(#grad)">VOID</text>
  <text x="600" y="465" text-anchor="middle" font-family="monospace" font-size="12" fill="rgba(255,255,255,0.4)" letter-spacing="4">PERSONAL AESTHETIC  ·  DIGITAL VOID</text>
  <g opacity="0.3" transform="translate(600,500)">
    <circle cx="-50" cy="-3" r="3" fill="#a78bfa" filter="url(#glow)"/>
    <text x="-38" y="0" font-family="monospace" font-size="9" fill="rgba(255,255,255,0.3)" letter-spacing="3">ONLINE  ·  BUILDING</text>
  </g>
  <g opacity="0.2" transform="translate(600,720)">
    <text x="0" y="0" text-anchor="middle" font-family="monospace" font-size="8" fill="rgba(255,255,255,0.2)" letter-spacing="4">SCROLL</text>
    <line x1="0" y1="12" x2="0" y2="44" stroke="rgba(255,255,255,0.3)" stroke-width="1"/>
  </g>
  <g transform="translate(60,560)">
    <rect x="0" y="0" width="240" height="140" rx="16" fill="rgba(255,255,255,0.03)" stroke="rgba(255,255,255,0.06)" stroke-width="1"/>
    <text x="20" y="30" font-family="monospace" font-size="9" fill="rgba(255,255,255,0.25)" letter-spacing="3">01 / ABOUT</text>
    <rect x="20" y="48" width="180" height="6" rx="3" fill="rgba(255,255,255,0.06)"/>
    <rect x="20" y="62" width="140" height="6" rx="3" fill="rgba(255,255,255,0.04)"/>
    <rect x="20" y="76" width="160" height="6" rx="3" fill="rgba(255,255,255,0.04)"/>
    <g transform="translate(20,100)">
      <rect x="0" y="0" width="50" height="20" rx="10" fill="none" stroke="rgba(255,255,255,0.08)" stroke-width="1"/>
      <text x="12" y="14" font-family="monospace" font-size="7" fill="rgba(255,255,255,0.3)" letter-spacing="1">DESIGN</text>
      <rect x="58" y="0" width="75" height="20" rx="10" fill="none" stroke="rgba(255,255,255,0.08)" stroke-width="1"/>
      <text x="68" y="14" font-family="monospace" font-size="7" fill="rgba(255,255,255,0.3)" letter-spacing="1">ENGINEERING</text>
      <rect x="141" y="0" width="55" height="20" rx="10" fill="none" stroke="rgba(255,255,255,0.08)" stroke-width="1"/>
      <text x="151" y="14" font-family="monospace" font-size="7" fill="rgba(255,255,255,0.3)" letter-spacing="1">MOTION</text>
    </g>
  </g>
  <g transform="translate(900,560)">
    <rect x="0" y="0" width="240" height="140" rx="16" fill="rgba(255,255,255,0.05)" stroke="rgba(255,255,255,0.1)" stroke-width="1"/>
    <text x="20" y="28" font-family="monospace" font-size="9" fill="rgba(255,255,255,0.15)" letter-spacing="2">01</text>
    <text x="20" y="56" font-family="sans-serif" font-size="18" font-weight="600" fill="rgba(255,255,255,0.8)">Spectre</text>
    <rect x="20" y="72" width="180" height="5" rx="2.5" fill="rgba(255,255,255,0.06)"/>
    <rect x="20" y="83" width="140" height="5" rx="2.5" fill="rgba(255,255,255,0.04)"/>
    <g transform="translate(208,20)" opacity="0.4">
      <line x1="0" y1="10" x2="10" y2="0" stroke="white" stroke-width="1.5" stroke-linecap="round"/>
      <polyline points="0,0 10,0 10,10" fill="none" stroke="white" stroke-width="1.5" stroke-linecap="round" stroke-linejoin="round"/>
    </g>
    <g transform="translate(20,104)">
      <rect x="0" y="0" width="40" height="18" rx="9" fill="none" stroke="rgba(255,255,255,0.06)" stroke-width="1"/>
      <text x="10" y="13" font-family="monospace" font-size="7" fill="rgba(255,255,255,0.2)" letter-spacing="1">REACT</text>
      <rect x="48" y="0" width="42" height="18" rx="9" fill="none" stroke="rgba(255,255,255,0.06)" stroke-width="1"/>
      <text x="55" y="13" font-family="monospace" font-size="7" fill="rgba(255,255,255,0.2)" letter-spacing="1">WEBGL</text>
      <rect x="98" y="0" width="34" height="18" rx="9" fill="none" stroke="rgba(255,255,255,0.06)" stroke-width="1"/>
      <text x="106" y="13" font-family="monospace" font-size="7" fill="rgba(255,255,255,0.2)" letter-spacing="1">GLSL</text>
    </g>
  </g>
  <g transform="translate(370,580)">
    <rect x="0" y="0" width="100" height="70" rx="12" fill="rgba(255,255,255,0.03)" stroke="rgba(255,255,255,0.06)" stroke-width="1"/>
    <text x="50" y="32" text-anchor="middle" font-family="sans-serif" font-size="24" font-weight="700" fill="url(#grad)">47</text>
    <text x="50" y="52" text-anchor="middle" font-family="monospace" font-size="8" fill="rgba(255,255,255,0.25)" letter-spacing="2">PROJECTS</text>
    <rect x="115" y="0" width="100" height="70" rx="12" fill="rgba(255,255,255,0.03)" stroke="rgba(255,255,255,0.06)" stroke-width="1"/>
    <text x="165" y="35" text-anchor="middle" font-family="sans-serif" font-size="24" font-weight="700" fill="url(#grad)">INF</text>
    <text x="165" y="52" text-anchor="middle" font-family="monospace" font-size="8" fill="rgba(255,255,255,0.25)" letter-spacing="2">LOOPS</text>
    <rect x="230" y="0" width="100" height="70" rx="12" fill="rgba(255,255,255,0.03)" stroke="rgba(255,255,255,0.06)" stroke-width="1"/>
    <text x="280" y="32" text-anchor="middle" font-family="sans-serif" font-size="24" font-weight="700" fill="url(#grad)">0</text>
    <text x="280" y="52" text-anchor="middle" font-family="monospace" font-size="8" fill="rgba(255,255,255,0.25)" letter-spacing="2">COMPROMISES</text>
  </g>
  <text x="600" y="778" text-anchor="middle" font-family="monospace" font-size="8" fill="rgba(255,255,255,0.1)" letter-spacing="4">(C) 2026 VOID</text>
</svg>
